# xmcd CD database file
# Copyright 1993-1996 (C) Ti Kan
#
# Track frame offsets:
#    187
#    21407
#    41487
#    58815
#    72682
#    93550
#    109625
#    124912
#    146630
#    165987
#
# Disc length: 2525 seconds
#
# Revision: 0
# Processed by: cddbd v1.4b41PL1 Copyright (c) Steve Scherf et al.
# Submitted via: MyCDplayer 2.3.3  (wjohn@fix.net)
#
DISCID=9109db0a
DTITLE=Robben Ford - 
DTITLE=Love's A Heartache
DYEAR=1900
DGENRE=
TTITLE0=Standing On The Outside
TTITLE1=Time Flies
TTITLE2=Save Your Nights For Me
TTITLE3=Me On The One Side
TTITLE4=Wheels Of Love
TTITLE5=Tell That Girl
TTITLE6=Illusions
TTITLE7=Sunset Memory
TTITLE8=Love's A Heartache
TTITLE9=Sun Lake
EXTD=1983 - Polydor
EXTT0=
EXTT1=
EXTT2=
EXTT3=
EXTT4=
EXTT5=
EXTT6=
EXTT7=
EXTT8=
EXTT9=
PLAYORDER=
